<svg xmlns="http://www.w3.org/2000/svg" xmlns:xlink="http://www.w3.org/1999/xlink" width="1920" zoomAndPan="magnify" viewBox="0 0 1440 809.999993" height="1080" preserveAspectRatio="xMidYMid meet" version="1.0"><defs><g/></defs><g fill="#14427f" fill-opacity="1"><g transform="translate(49.30057, 486.38341)"><g><path d="M 90.5 -220.296875 C 106.539062 -220.296875 120.25 -217.601562 131.625 -212.21875 C 143 -206.832031 151.785156 -199.0625 157.984375 -188.90625 C 164.179688 -178.75 167.28125 -166.460938 167.28125 -152.046875 C 167.28125 -143.304688 165.957031 -134.722656 163.3125 -126.296875 C 160.675781 -117.867188 156.460938 -110.25 150.671875 -103.4375 C 144.878906 -96.632812 137.3125 -91.203125 127.96875 -87.140625 C 118.625 -83.078125 107.25 -81.046875 93.84375 -81.046875 L 61.25 -81.046875 L 61.25 0 L 31.6875 0 L 31.6875 -220.296875 Z M 93.546875 -109.390625 C 102.273438 -109.390625 109.484375 -110.8125 115.171875 -113.65625 C 120.859375 -116.5 125.328125 -120.101562 128.578125 -124.46875 C 131.828125 -128.832031 134.160156 -133.453125 135.578125 -138.328125 C 137.003906 -143.203125 137.71875 -147.570312 137.71875 -151.4375 C 137.71875 -155.90625 137.003906 -160.523438 135.578125 -165.296875 C 134.160156 -170.066406 131.773438 -174.429688 128.421875 -178.390625 C 125.078125 -182.359375 120.710938 -185.609375 115.328125 -188.140625 C 109.941406 -190.679688 103.289062 -191.953125 95.375 -191.953125 L 61.25 -191.953125 L 61.25 -109.390625 Z M 93.546875 -109.390625 "/></g></g></g><g fill="#14427f" fill-opacity="1"><g transform="translate(230.571095, 486.38341)"><g><path d="M 90.1875 -220.296875 C 101.363281 -220.296875 111.671875 -218.820312 121.109375 -215.875 C 130.554688 -212.925781 138.785156 -208.554688 145.796875 -202.765625 C 152.804688 -196.984375 158.289062 -189.875 162.25 -181.4375 C 166.207031 -173.007812 168.1875 -163.210938 168.1875 -152.046875 C 168.1875 -143.304688 166.914062 -134.769531 164.375 -126.4375 C 161.84375 -118.113281 157.628906 -110.550781 151.734375 -103.75 C 145.847656 -96.945312 138.179688 -91.460938 128.734375 -87.296875 C 119.285156 -83.128906 107.65625 -81.046875 93.84375 -81.046875 L 61.25 -81.046875 L 61.25 0 L 31.6875 0 L 31.6875 -220.296875 Z M 93.234375 -109.390625 C 101.972656 -109.390625 109.234375 -110.707031 115.015625 -113.34375 C 120.804688 -115.988281 125.328125 -119.390625 128.578125 -123.546875 C 131.828125 -127.710938 134.160156 -132.234375 135.578125 -137.109375 C 137.003906 -141.984375 137.71875 -146.554688 137.71875 -150.828125 C 137.71875 -155.296875 136.957031 -159.914062 135.4375 -164.6875 C 133.914062 -169.457031 131.476562 -173.875 128.125 -177.9375 C 124.769531 -182 120.398438 -185.347656 115.015625 -187.984375 C 109.640625 -190.628906 103.09375 -191.953125 95.375 -191.953125 L 61.25 -191.953125 L 61.25 -109.390625 Z M 129.5 -92.625 L 187.078125 0 L 152.953125 0 L 94.453125 -91.71875 Z M 129.5 -92.625 "/></g></g></g><g fill="#14427f" fill-opacity="1"><g transform="translate(431.339626, 486.38341)"><g><path d="M 17.984375 -110 C 17.984375 -125.226562 20.875 -139.597656 26.65625 -153.109375 C 32.445312 -166.617188 40.519531 -178.601562 50.875 -189.0625 C 61.238281 -199.519531 73.175781 -207.742188 86.6875 -213.734375 C 100.195312 -219.734375 114.769531 -222.734375 130.40625 -222.734375 C 145.84375 -222.734375 160.316406 -219.734375 173.828125 -213.734375 C 187.335938 -207.742188 199.320312 -199.519531 209.78125 -189.0625 C 220.238281 -178.601562 228.410156 -166.617188 234.296875 -153.109375 C 240.191406 -139.597656 243.140625 -125.226562 243.140625 -110 C 243.140625 -94.351562 240.191406 -79.722656 234.296875 -66.109375 C 228.410156 -52.503906 220.238281 -40.570312 209.78125 -30.3125 C 199.320312 -20.0625 187.335938 -12.039062 173.828125 -6.25 C 160.316406 -0.457031 145.84375 2.4375 130.40625 2.4375 C 114.769531 2.4375 100.195312 -0.40625 86.6875 -6.09375 C 73.175781 -11.78125 61.238281 -19.703125 50.875 -29.859375 C 40.519531 -40.015625 32.445312 -51.894531 26.65625 -65.5 C 20.875 -79.113281 17.984375 -93.945312 17.984375 -110 Z M 48.453125 -109.6875 C 48.453125 -98.113281 50.582031 -87.296875 54.84375 -77.234375 C 59.113281 -67.179688 65.003906 -58.296875 72.515625 -50.578125 C 80.035156 -42.859375 88.769531 -36.816406 98.71875 -32.453125 C 108.675781 -28.085938 119.441406 -25.90625 131.015625 -25.90625 C 142.390625 -25.90625 153.050781 -28.085938 163 -32.453125 C 172.957031 -36.816406 181.59375 -42.859375 188.90625 -50.578125 C 196.21875 -58.296875 202.003906 -67.179688 206.265625 -77.234375 C 210.535156 -87.296875 212.671875 -98.21875 212.671875 -110 C 212.671875 -121.570312 210.535156 -132.488281 206.265625 -142.75 C 202.003906 -153.007812 196.113281 -162 188.59375 -169.71875 C 181.082031 -177.4375 172.347656 -183.476562 162.390625 -187.84375 C 152.441406 -192.207031 141.78125 -194.390625 130.40625 -194.390625 C 118.832031 -194.390625 108.066406 -192.15625 98.109375 -187.6875 C 88.160156 -183.21875 79.425781 -177.125 71.90625 -169.40625 C 64.394531 -161.6875 58.609375 -152.695312 54.546875 -142.4375 C 50.484375 -132.1875 48.453125 -121.269531 48.453125 -109.6875 Z M 48.453125 -109.6875 "/></g></g></g><g fill="#14427f" fill-opacity="1"><g transform="translate(692.430155, 486.38341)"><g><path d="M 79.53125 -39.921875 C 79.53125 -22.046875 76.125 -6.8125 69.3125 5.78125 C 62.507812 18.382812 53.21875 27.984375 41.4375 34.578125 C 29.65625 41.179688 16.148438 44.789062 0.921875 45.40625 L 0.921875 16.765625 C 15.140625 15.953125 26.867188 10.921875 36.109375 1.671875 C 45.347656 -7.566406 49.96875 -21.734375 49.96875 -40.828125 L 49.96875 -220.296875 L 79.53125 -220.296875 Z M 79.53125 -39.921875 "/></g></g></g><g fill="#14427f" fill-opacity="1"><g transform="translate(803.629695, 486.38341)"><g><path d="M 31.6875 -220.296875 L 174.890625 -220.296875 L 174.890625 -191.953125 L 61.25 -191.953125 L 61.25 -124.921875 L 162.703125 -124.921875 L 162.703125 -96.59375 L 61.25 -96.59375 L 61.25 -28.34375 L 179.15625 -28.34375 L 179.15625 0 L 31.6875 0 Z M 31.6875 -220.296875 "/></g></g></g><g fill="#14427f" fill-opacity="1"><g transform="translate(1002.26559, 486.38341)"><g><path d="M 193.484375 -16.453125 C 189.828125 -14.015625 184.847656 -11.269531 178.546875 -8.21875 C 172.253906 -5.175781 164.890625 -2.640625 156.453125 -0.609375 C 148.023438 1.421875 138.835938 2.4375 128.890625 2.4375 C 111.828125 2.238281 96.4375 -0.804688 82.71875 -6.703125 C 69.007812 -12.597656 57.378906 -20.625 47.828125 -30.78125 C 38.285156 -40.9375 30.925781 -52.664062 25.75 -65.96875 C 20.570312 -79.269531 17.984375 -93.4375 17.984375 -108.46875 C 17.984375 -124.925781 20.671875 -140.109375 26.046875 -154.015625 C 31.429688 -167.929688 39 -180.019531 48.75 -190.28125 C 58.5 -200.539062 70.023438 -208.515625 83.328125 -214.203125 C 96.640625 -219.890625 111.21875 -222.734375 127.0625 -222.734375 C 140.257812 -222.734375 152.238281 -220.953125 163 -217.390625 C 173.769531 -213.835938 183.015625 -209.625 190.734375 -204.75 L 178.859375 -177.328125 C 172.765625 -181.390625 165.398438 -185.25 156.765625 -188.90625 C 148.128906 -192.5625 138.53125 -194.390625 127.96875 -194.390625 C 117.207031 -194.390625 107.050781 -192.253906 97.5 -187.984375 C 87.957031 -183.722656 79.53125 -177.734375 72.21875 -170.015625 C 64.90625 -162.296875 59.164062 -153.304688 55 -143.046875 C 50.832031 -132.796875 48.75 -121.78125 48.75 -110 C 48.75 -98.007812 50.628906 -86.882812 54.390625 -76.625 C 58.148438 -66.375 63.53125 -57.488281 70.53125 -49.96875 C 77.539062 -42.457031 86.019531 -36.566406 95.96875 -32.296875 C 105.925781 -28.035156 117.101562 -25.90625 129.5 -25.90625 C 140.664062 -25.90625 150.613281 -27.628906 159.34375 -31.078125 C 168.082031 -34.535156 175.296875 -38.394531 180.984375 -42.65625 Z M 193.484375 -16.453125 "/></g></g></g><g fill="#14427f" fill-opacity="1"><g transform="translate(1213.697115, 486.38341)"><g><path d="M 15.546875 -220.296875 L 161.796875 -220.296875 L 161.796875 -191.953125 L 102.6875 -191.953125 L 102.6875 0 L 73.125 0 L 73.125 -191.953125 L 15.546875 -191.953125 Z M 15.546875 -220.296875 "/></g></g></g></svg>